<?xml version="1.0" encoding="UTF-8" standalone="no"?>
<!DOCTYPE svg PUBLIC "-//W3C//DTD SVG 1.1//EN" "http://www.w3.org/Graphics/SVG/1.1/DTD/svg11.dtd">
<svg width="100%" height="100%" viewBox="0 0 742 442" version="1.1" xmlns="http://www.w3.org/2000/svg" xmlns:xlink="http://www.w3.org/1999/xlink" xml:space="preserve" xmlns:serif="http://www.serif.com/" style="fill-rule:evenodd;clip-rule:evenodd;stroke-linejoin:round;stroke-miterlimit:2;">
    <g transform="matrix(1,0,0,1,-129.479,-279.332)">
        <g transform="matrix(1.04086,0,0,1.04086,9.7801,-51.8348)">
            <g transform="matrix(1.19665,0,0,1.19665,-131.511,12.2221)">
                <path d="M257,290.5C257,276.426 245.574,265 231.5,265C217.426,265 206,276.426 206,290.5L206,584.5C206,598.574 217.426,610 231.5,610C245.574,610 257,598.574 257,584.5L257,290.5Z" style="fill:rgb(0,194,253);"/>
            </g>
            <g transform="matrix(1.03639,-0.598232,0.65838,1.14059,-284.134,169.657)">
                <path d="M257,288.17C257,275.382 245.574,265 231.5,265C217.426,265 206,275.382 206,288.17L206,586.83C206,599.618 217.426,610 231.5,610C245.574,610 257,599.618 257,586.83L257,288.17Z" style="fill:rgb(0,194,253);"/>
            </g>
            <g transform="matrix(1.03639,-0.598232,0.65838,1.14059,-155.303,169.657)">
                <path d="M257,288.17C257,275.382 245.574,265 231.5,265C217.426,265 206,275.382 206,288.17L206,586.83C206,599.618 217.426,610 231.5,610C245.574,610 257,599.618 257,586.83L257,288.17Z" style="fill:rgb(0,194,253);"/>
            </g>
            <g transform="matrix(1.19665,0,0,1.19665,193.952,1.05445)">
                <path d="M257,290.5C257,276.426 245.574,265 231.5,265C217.426,265 206,276.426 206,290.5L206,584.5C206,598.574 217.426,610 231.5,610C245.574,610 257,598.574 257,584.5L257,290.5Z" style="fill:rgb(0,194,253);"/>
            </g>
            <g transform="matrix(1.03639,-0.598232,0.65838,1.14059,41.329,158.489)">
                <path d="M257,288.17C257,275.382 245.574,265 231.5,265C217.426,265 206,275.382 206,288.17L206,586.83C206,599.618 217.426,610 231.5,610C245.574,610 257,599.618 257,586.83L257,288.17Z" style="fill:rgb(0,194,253);"/>
            </g>
            <g transform="matrix(1.03639,-0.598232,0.65838,1.14059,170.16,158.489)">
                <path d="M257,288.17C257,275.382 245.574,265 231.5,265C217.426,265 206,275.382 206,288.17L206,586.83C206,599.618 217.426,610 231.5,610C245.574,610 257,599.618 257,586.83L257,288.17Z" style="fill:rgb(0,194,253);"/>
            </g>
        </g>
    </g>
</svg>
