<?xml version="1.0" encoding="UTF-8" standalone="no"?><!DOCTYPE svg PUBLIC "-//W3C//DTD SVG 1.1//EN" "http://www.w3.org/Graphics/SVG/1.1/DTD/svg11.dtd"><svg width="100%" height="100%" viewBox="0 0 390 512" version="1.1" xmlns="http://www.w3.org/2000/svg" xmlns:xlink="http://www.w3.org/1999/xlink" xml:space="preserve" xmlns:serif="http://www.serif.com/" style="fill-rule:evenodd;clip-rule:evenodd;stroke-linejoin:round;stroke-miterlimit:2;"><g><path d="M194.958,69c34.792,0 66.25,14.083 89.084,36.875c22.791,22.792 36.875,54.292 36.875,89.083c-0,33.25 -12.875,63.5 -33.917,86c-2.167,-11.791 -5.417,-22.416 -9.583,-31.833c10.25,-15.542 16.208,-34.167 16.208,-54.167c0,-27.25 -11.042,-51.916 -28.875,-69.75c-17.833,-17.833 -42.5,-28.875 -69.75,-28.875c-27.25,0 -51.917,11.042 -69.75,28.875c-17.833,17.834 -28.875,42.5 -28.875,69.75c0,20.792 6.417,40.084 17.417,56c-4.209,9.292 -7.542,19.667 -9.792,31.084c-21.625,-22.625 -34.917,-53.292 -34.917,-87.084c0,-34.791 14.084,-66.25 36.875,-89.083c22.709,-22.792 54.209,-36.875 89,-36.875Zm-66.666,209.875c10.625,-39.708 133.791,-32.333 133.791,-1.458c-0.083,319.416 -133.875,305.625 -133.791,1.458Zm67.291,-142.167c29.417,0 53.25,23.834 53.25,53.25c0,29.417 -23.833,53.25 -53.25,53.25c-29.416,0 -53.25,-23.833 -53.25,-53.25c0,-29.416 23.834,-53.25 53.25,-53.25Zm-0.625,-136.708c53.834,0 102.584,21.833 137.834,57.083c35.291,35.292 57.083,84 57.083,137.834c0,53.833 -21.833,102.583 -57.083,137.833c-13.834,13.833 -29.75,25.583 -47.209,34.792c1.25,-9.625 2.375,-19.584 3.292,-30c0.125,-1.334 0.208,-2.667 0.292,-4c8.708,-5.959 16.833,-12.667 24.291,-20.125c30.334,-30.334 49.084,-72.25 49.084,-118.542c-0,-46.292 -18.75,-88.208 -49.084,-118.542c-30.291,-30.25 -72.208,-49.041 -118.5,-49.041c-46.291,-0 -88.208,18.75 -118.541,49.083c-30.334,30.375 -49.125,72.292 -49.125,118.583c-0,46.292 18.75,88.209 49.083,118.542c7.625,7.625 15.958,14.5 24.875,20.542c0.125,1.916 0.25,3.791 0.458,5.75c0.959,9.75 2.084,19.125 3.334,28.208c-17.792,-9.25 -33.959,-21.167 -48,-35.208c-35.209,-35.25 -57.042,-84 -57.042,-137.834c0,-53.833 21.833,-102.583 57.083,-137.875c35.292,-35.25 84.042,-57.083 137.875,-57.083Z" style="fill:#fff;fill-rule:nonzero;"/></g></svg>